
<svg width="94" height="47" xmlns="http://www.w3.org/2000/svg" viewBox="0 0 573.56 292.46">
<defs>
  <style>.cls-1{fill:#fff;}</style>
</defs>
<g id="Слой_2">
  <g id="Слой_1-2">
    <polygon class="cls-1"
             points="146.11 146.11 177.22 188.17 221.03 188.17 190.91 146.11 221.03 104.04 177.22 104.04 146.11 146.11"/>
    <path class="cls-1"
          d="M286.25,104H242.19l-30.87,42.07,30.87,42.06c-23.15,53-85.13,77.17-138.15,54S26.88,157.06,50,104s85.13-77.16,138.15-54a103.85,103.85,0,0,1,42.07,33.36h48c-34.6-72.93-122-103.8-194.9-69.2s-103.8,122-69.2,194.9,122,103.8,194.9,69.2a146.19,146.19,0,0,0,77.17-90.11l-30.37-42.06Z"/>
    <path class="cls-1"
          d="M460,186.32l-.23-36.88L442.2,179h-12L412.6,150.71v35.61H387.74V105.38h22.43l26.37,43.13,25.67-43.13h22.43l.23,80.94Z"/>
    <path class="cls-1" d="M522.57,126.54H498.86V105.38h74.7v21.16H549.85v59.78H522.57Z"/>
    <path class="cls-1" d="M400.26,205.62H387.88v-5.87h31.69v5.87H407.19V237.1h-6.93Z"/>
    <path class="cls-1"
          d="M426.24,235.6a13.54,13.54,0,0,1-5.41-5.2,14.67,14.67,0,0,1-1.95-7.55,14.51,14.51,0,0,1,1.95-7.52,13.63,13.63,0,0,1,5.41-5.18,17.26,17.26,0,0,1,15.63,0,13.66,13.66,0,0,1,5.42,5.18,14.51,14.51,0,0,1,1.95,7.52,14.67,14.67,0,0,1-1.95,7.55,13.57,13.57,0,0,1-5.42,5.2,17.26,17.26,0,0,1-15.63,0Zm13.87-6.29a9.86,9.86,0,0,0,0-12.92,8.15,8.15,0,0,0-6.08-2.45,8.07,8.07,0,0,0-6,2.45,10,10,0,0,0,0,12.92,8.07,8.07,0,0,0,6,2.45A8.15,8.15,0,0,0,440.11,229.31Z"/>
    <path class="cls-1"
          d="M467.27,224.88l-5,4.69v7.53h-6.67V197.51h6.67v23.9l13.82-12.81h8l-11.89,12,13,16.54h-8.11Z"/>
    <path class="cls-1"
          d="M515.08,225H492.72a7.79,7.79,0,0,0,3.07,5,10,10,0,0,0,6.17,1.84,10.4,10.4,0,0,0,7.73-3.09l3.58,4.11a12,12,0,0,1-4.86,3.47,19.26,19.26,0,0,1-14.89-.7,13.46,13.46,0,0,1-5.52-5.2,14.67,14.67,0,0,1-1.95-7.55,14.88,14.88,0,0,1,1.9-7.5,13.46,13.46,0,0,1,5.25-5.2,15.4,15.4,0,0,1,7.58-1.87,15,15,0,0,1,7.44,1.84,13.11,13.11,0,0,1,5.13,5.18,15.75,15.75,0,0,1,1.84,7.71C515.19,223.47,515.15,224.13,515.08,225Zm-19.72-9.48a8,8,0,0,0-2.69,5.05h16.17a7.8,7.8,0,0,0-8.06-6.94A8.08,8.08,0,0,0,495.36,215.51Z"/>
    <path class="cls-1"
          d="M546.4,211.43q3.26,3.15,3.26,9.34V237.1H543V221.62a8,8,0,0,0-1.76-5.63,6.54,6.54,0,0,0-5-1.89,7.75,7.75,0,0,0-5.82,2.21,8.86,8.86,0,0,0-2.13,6.38V237.1h-6.67V208.6h6.35v3.69a10.33,10.33,0,0,1,4.16-3,14.91,14.91,0,0,1,5.66-1A11.9,11.9,0,0,1,546.4,211.43Z"/>
    <path class="cls-1"
          d="M343.11,146.21v17.91a25.73,25.73,0,0,1-9.94,2q-8.79,0-14.05-5.55t-5.26-14.69q0-9.36,5.31-14.8t14.34-5.43q10.53,0,18.16,8.9l17.46-15.38a40.16,40.16,0,0,0-15.67-11.62,54.29,54.29,0,0,0-21.33-4,50.91,50.91,0,0,0-23.65,5.38,40,40,0,0,0-16.31,15,44.09,44.09,0,0,0,0,43.82,40.28,40.28,0,0,0,16.13,15,49.52,49.52,0,0,0,23.25,5.37,68.41,68.41,0,0,0,18.61-2.66,54.86,54.86,0,0,0,16.65-7.63V146.21Z"/>
  </g>
</g>
</svg>
